#N canvas 162 371 671 708 10;
#X obj 52 253 inlet~;
#X obj 116 254 inlet;
#X obj 212 254 inlet;
#X obj 209 514 * -1;
#X obj 52 653 outlet~;
#X text 115 236 B;
#X text 210 236 psi;
#X obj 167 307 v B;
#X obj 116 468 expr B*cos(psi) \; B*sin(psi);
#X obj 53 527 cpole~;
#X obj 53 549 cpole~;
#X obj 53 621 *~ 1;
#X obj 155 253 f \$1;
#X obj 252 253 f \$2;
#X text 287 166 processa parâmetros de criação, f 11;
#X obj 201 194 t b b b b;
#X obj 116 277 t b b f;
#X obj 212 277 t b b f;
#X obj 201 166 loadbang;
#X obj 53 572 czero~;
#X obj 53 595 czero~;
#X text 51 235 sinal;
#X text 240 515 polo conjugado;
#X obj 266 355 expr if ($f1<0.001 \, -1 \, if($f1>3.14 \, 1 \, 1))
\; if ($f1<0.001 \, -1 \, if($f1>3.14 \, 1 \, -1)) \;;
#X obj 266 306 t f f;
#X text 222 467 converte (B \, psi) para Cartesiano, f 16;
#X obj 293 329 v psi;
#X text 395 335 calcula zeros z1 e z2:;
#X obj 527 396 t f f;
#X obj 527 419 v z2;
#X obj 266 396 t f f;
#X obj 266 419 v z1;
#X text 190 562 normaliza filtro: a0 = |z-P||z-conj(P)|/((z-z1)*(z-z2))
\, para z=exp(i*psi), f 74;
#X text 50 27 [2polos2zeros~ B psi] cria um filtro de 2 polos e 2 zeros
a partir da descrição da representação polar (B \, psi) de um dos
polos. Para polos em frequências intermediárias \, os zeros são
localizados em +1 (DC) e -1 (Nyquist) \, mas nos casos extremos psi=0
e psi=pi os zeros se movem automaticamente para o extremo oposto (2
polos perto de DC movem os 2 zeros para Nyquist e vice-versa). Essa
abstração usa os objetos [cpole~] e [czero~] que correspondem respectivamente
a filtros (complexos) de 1 polo e 1 zero., f 90;
#X obj 135 583 expr (1-B)*sqrt(1+B*B-2*B*cos(2*psi))/sqrt((1+z1*z1-2*z1*cos(psi))*(1+z2*z2-2*z2*cos(psi)))
, f 86;
#X connect 0 0 9 0;
#X connect 1 0 16 0;
#X connect 2 0 17 0;
#X connect 3 0 10 3;
#X connect 8 0 9 2;
#X connect 8 0 10 2;
#X connect 8 1 3 0;
#X connect 8 1 9 3;
#X connect 9 0 10 0;
#X connect 9 1 10 1;
#X connect 10 0 19 0;
#X connect 11 0 4 0;
#X connect 12 0 7 0;
#X connect 13 0 24 0;
#X connect 15 0 8 0;
#X connect 15 1 34 0;
#X connect 15 2 12 0;
#X connect 15 3 13 0;
#X connect 16 0 8 0;
#X connect 16 1 34 0;
#X connect 16 2 7 0;
#X connect 17 0 8 0;
#X connect 17 1 34 0;
#X connect 17 2 24 0;
#X connect 18 0 15 0;
#X connect 19 0 20 0;
#X connect 20 0 11 0;
#X connect 23 0 30 0;
#X connect 23 1 28 0;
#X connect 24 0 23 0;
#X connect 24 1 26 0;
#X connect 28 0 29 0;
#X connect 28 1 20 2;
#X connect 30 0 31 0;
#X connect 30 1 19 2;
#X connect 34 0 11 1;
