#N canvas -2 0 1904 1032 10;
#X obj 46 264 inlet~;
#X obj 46 396 outlet~;
#X obj 67 88 vsl 15 128 1e-05 1 1 1 empty empty 0kHz 0 -9 0 10 #fcfcfc #000000 #000000 0 1;
#X obj 99 88 vsl 15 128 1e-05 1 1 1 empty empty 6kHz 0 -9 0 10 #fcfcfc #000000 #000000 0 1;
#X obj 131 88 vsl 15 128 1e-05 1 1 1 empty empty 12kHz 0 -9 0 10 #fcfcfc #000000 #000000 0 1;
#X obj 163 88 vsl 15 128 1e-05 1 1 1 empty empty 18kHz 0 -9 0 10 #fcfcfc #000000 #000000 0 1;
#X obj 195 88 vsl 15 128 1e-05 1 1 1 empty empty 24kHz 0 -9 0 10 #fcfcfc #000000 #000000 0 1;
#N canvas 954 24 948 472 filtro 0;
#X obj 18 19 inlet~;
#X obj 25 276 *~ 1;
#X obj 163 279 *~ 1;
#X obj 331 274 *~ 1;
#X obj 501 274 *~ 1;
#X obj 671 275 *~ 1;
#X obj 25 233 2polos2zeros~ 0.6682 0;
#X obj 163 233 2polos2zeros~ 0.8223 0.7854;
#X obj 501 233 2polos2zeros~ 0.8223 2.3562;
#X obj 671 233 2polos2zeros~ 0.6682 3.1416;
#X obj 331 233 2polos2zeros~ 0.7836 1.5708;
#X obj 25 410 outlet~;
#X obj 46 254 inlet;
#X obj 184 256 inlet;
#X obj 352 253 inlet;
#X obj 522 253 inlet;
#X obj 692 254 inlet;
#N canvas 954 24 948 472 calculaBotimos 0;
#X obj 7 7 inlet;
#X text 54 7 Entrada dos 5 ângulos em radianos;
#X obj 7 78 ofelia f \; local x = ofTable() \; x[1] = a[1] \; x[2] = (a[1] + a[2]) / 2 \; return x \;;
#X obj 7 148 Botimo;
#X obj 165 148 Botimo;
#X obj 323 148 Botimo;
#X obj 481 148 Botimo;
#X obj 639 148 Botimo;
#X obj 165 78 ofelia f \; local x = ofTable() \; x[1] = a[2] \; x[2] = (a[2] + a[3]) / 2 \; return x \;;
#X obj 323 78 ofelia f \; local x = ofTable() \; x[1] = a[3] \; x[2] = (a[3] + a[4]) / 2 \; return x \;;
#X obj 481 78 ofelia f \; local x = ofTable() \; x[1] = a[4] \; x[2] = (a[4] + a[5]) / 2 \; return x \;;
#X obj 639 78 ofelia f \; local x = ofTable() \; x[1] = a[5] \; x[2] = (a[5] + a[4]) / 2 \; return x \;;
#X floatatom 7 170 8 0 0 0 - - - 0;
#X floatatom 165 170 9 0 0 0 - - - 0;
#X floatatom 323 170 8 0 0 0 - - - 0;
#X floatatom 481 170 9 0 0 0 - - - 0;
#X floatatom 639 170 8 0 0 0 - - - 0;
#X obj 7 191 outlet;
#X obj 165 191 outlet;
#X obj 323 191 outlet;
#X obj 481 191 outlet;
#X obj 639 191 outlet;
#X connect 0 0 2 0;
#X connect 0 0 8 0;
#X connect 0 0 9 0;
#X connect 0 0 10 0;
#X connect 0 0 11 0;
#X connect 2 0 3 0;
#X connect 3 0 12 0;
#X connect 4 0 13 0;
#X connect 5 0 14 0;
#X connect 6 0 15 0;
#X connect 7 0 16 0;
#X connect 8 0 4 0;
#X connect 9 0 5 0;
#X connect 10 0 6 0;
#X connect 11 0 7 0;
#X connect 12 0 17 0;
#X connect 13 0 18 0;
#X connect 14 0 19 0;
#X connect 15 0 20 0;
#X connect 16 0 21 0;
#X restore 407 52 pd calculaBotimos;
#X obj 299 52 unpack f f f f f;
#X obj 299 22 r angulos;
#X connect 0 0 6 0;
#X connect 0 0 7 0;
#X connect 0 0 10 0;
#X connect 0 0 8 0;
#X connect 0 0 9 0;
#X connect 1 0 11 0;
#X connect 2 0 11 0;
#X connect 3 0 11 0;
#X connect 4 0 11 0;
#X connect 5 0 11 0;
#X connect 6 0 1 0;
#X connect 7 0 2 0;
#X connect 8 0 4 0;
#X connect 9 0 5 0;
#X connect 10 0 3 0;
#X connect 12 0 1 1;
#X connect 13 0 2 1;
#X connect 14 0 3 1;
#X connect 15 0 4 1;
#X connect 16 0 5 1;
#X connect 17 0 6 1;
#X connect 17 1 7 1;
#X connect 17 2 10 1;
#X connect 17 3 8 1;
#X connect 17 4 9 1;
#X connect 18 0 6 2;
#X connect 18 1 7 2;
#X connect 18 2 10 2;
#X connect 18 3 8 2;
#X connect 18 4 9 2;
#X connect 19 0 17 0;
#X connect 19 0 18 0;
#X restore 46 355 pd filtro;
#X f 25;
#N canvas 1112 0 790 496 calculaAngulos 0;
#X obj 10 38 ofelia f \; local R = ofGetSampleRate() \; local angulos = ofTable() \; for i=1 \, #a do \; angulos[i] = 2 * math.pi * a[i] / R \; end \; return angulos \;;
#X obj 10 133 outlet;
#X obj 10 13 inlet;
#X connect 0 0 1 0;
#X connect 2 0 0 0;
#X restore 347 140 pd calculaAngulos;
#X obj 347 65 loadbang;
#X msg 347 88 args;
#X obj 347 111 pdcontrol;
#X msg 437 110 0 3000 6000 12000 24000;
#X obj 347 163 s angulos;
#X text 585 111 Frequências de teste;
#X obj 235 264 inlet~;
#X obj 235 396 outlet~;
#N canvas 954 24 948 472 filtro 0;
#X obj 18 19 inlet~;
#X obj 25 276 *~ 1;
#X obj 163 279 *~ 1;
#X obj 331 274 *~ 1;
#X obj 501 274 *~ 1;
#X obj 671 275 *~ 1;
#X obj 25 233 2polos2zeros~ 0.6682 0;
#X obj 163 233 2polos2zeros~ 0.8223 0.7854;
#X obj 501 233 2polos2zeros~ 0.8223 2.3562;
#X obj 671 233 2polos2zeros~ 0.6682 3.1416;
#X obj 331 233 2polos2zeros~ 0.7836 1.5708;
#X obj 25 410 outlet~;
#X obj 46 254 inlet;
#X obj 184 256 inlet;
#X obj 352 253 inlet;
#X obj 522 253 inlet;
#X obj 692 254 inlet;
#N canvas 954 24 948 472 calculaBotimos 0;
#X obj 7 7 inlet;
#X text 54 7 Entrada dos 5 ângulos em radianos;
#X obj 7 78 ofelia f \; local x = ofTable() \; x[1] = a[1] \; x[2] = (a[1] + a[2]) / 2 \; return x \;;
#X obj 7 148 Botimo;
#X obj 165 148 Botimo;
#X obj 323 148 Botimo;
#X obj 481 148 Botimo;
#X obj 639 148 Botimo;
#X obj 165 78 ofelia f \; local x = ofTable() \; x[1] = a[2] \; x[2] = (a[2] + a[3]) / 2 \; return x \;;
#X obj 323 78 ofelia f \; local x = ofTable() \; x[1] = a[3] \; x[2] = (a[3] + a[4]) / 2 \; return x \;;
#X obj 481 78 ofelia f \; local x = ofTable() \; x[1] = a[4] \; x[2] = (a[4] + a[5]) / 2 \; return x \;;
#X obj 639 78 ofelia f \; local x = ofTable() \; x[1] = a[5] \; x[2] = (a[5] + a[4]) / 2 \; return x \;;
#X floatatom 7 170 8 0 0 0 - - - 0;
#X floatatom 165 170 9 0 0 0 - - - 0;
#X floatatom 323 170 8 0 0 0 - - - 0;
#X floatatom 481 170 9 0 0 0 - - - 0;
#X floatatom 639 170 8 0 0 0 - - - 0;
#X obj 7 191 outlet;
#X obj 165 191 outlet;
#X obj 323 191 outlet;
#X obj 481 191 outlet;
#X obj 639 191 outlet;
#X connect 0 0 2 0;
#X connect 0 0 8 0;
#X connect 0 0 9 0;
#X connect 0 0 10 0;
#X connect 0 0 11 0;
#X connect 2 0 3 0;
#X connect 3 0 12 0;
#X connect 4 0 13 0;
#X connect 5 0 14 0;
#X connect 6 0 15 0;
#X connect 7 0 16 0;
#X connect 8 0 4 0;
#X connect 9 0 5 0;
#X connect 10 0 6 0;
#X connect 11 0 7 0;
#X connect 12 0 17 0;
#X connect 13 0 18 0;
#X connect 14 0 19 0;
#X connect 15 0 20 0;
#X connect 16 0 21 0;
#X restore 407 52 pd calculaBotimos;
#X obj 299 52 unpack f f f f f;
#X obj 299 22 r angulos;
#X connect 0 0 6 0;
#X connect 0 0 7 0;
#X connect 0 0 10 0;
#X connect 0 0 8 0;
#X connect 0 0 9 0;
#X connect 1 0 11 0;
#X connect 2 0 11 0;
#X connect 3 0 11 0;
#X connect 4 0 11 0;
#X connect 5 0 11 0;
#X connect 6 0 1 0;
#X connect 7 0 2 0;
#X connect 8 0 4 0;
#X connect 9 0 5 0;
#X connect 10 0 3 0;
#X connect 12 0 1 1;
#X connect 13 0 2 1;
#X connect 14 0 3 1;
#X connect 15 0 4 1;
#X connect 16 0 5 1;
#X connect 17 0 6 1;
#X connect 17 1 7 1;
#X connect 17 2 10 1;
#X connect 17 3 8 1;
#X connect 17 4 9 1;
#X connect 18 0 6 2;
#X connect 18 1 7 2;
#X connect 18 2 10 2;
#X connect 18 3 8 2;
#X connect 18 4 9 2;
#X connect 19 0 17 0;
#X connect 19 0 18 0;
#X restore 235 355 pd filtro;
#X f 25;
#X connect 0 0 7 0;
#X connect 2 0 7 1;
#X connect 2 0 17 1;
#X connect 3 0 7 2;
#X connect 3 0 17 2;
#X connect 4 0 7 3;
#X connect 4 0 17 3;
#X connect 5 0 7 4;
#X connect 5 0 17 4;
#X connect 6 0 7 5;
#X connect 6 0 17 5;
#X connect 7 0 1 0;
#X connect 8 0 13 0;
#X connect 9 0 10 0;
#X connect 10 0 11 0;
#X connect 11 0 8 0;
#X connect 12 0 8 0;
#X connect 15 0 17 0;
#X connect 17 0 16 0;
#X coords 0 -1 1 1 180 180 1 50 50;
