#N canvas -2 1632 948 480 10;
#X obj 51 15 noise~;
#N canvas 0 371 691 143 análise 0;
#X obj 40 47 rfft~;
#X obj 40 91 tabwrite~ espectro;
#X obj 40 69 expr~ sqrt($v1*$v1+$v2*$v2)/1024;
#X text 278 68 magnitude normalizada;
#X obj 470 54 tgl 15 1 empty empty empty 17 7 0 10 #fcfcfc #000000 #000000 1 1;
#X obj 470 74 metro 200;
#X obj 548 95 block~ 1024;
#X obj 548 31 loadbang;
#X msg 548 53 \; pd dsp 1;
#X obj 40 16 inlet~;
#X connect 0 0 2 0;
#X connect 0 1 2 1;
#X connect 2 0 1 0;
#X connect 4 0 5 0;
#X connect 5 0 1 0;
#X connect 7 0 8 0;
#X connect 9 0 0 0;
#X restore 169 243 pd análise;
#N canvas 0 50 450 250 (subpatch) 0;
#X array espectro 513 float 0;
#X coords 0 0.05 512 0 600 280 1 0 0;
#X restore 54 282 graph;
#X obj 52 41 equalizador~ 0 3000 6000 12000 24000;
#X obj 52 239 dac~ 1 2;
#X connect 0 0 3 1;
#X connect 0 0 3 0;
#X connect 3 0 4 0;
#X connect 3 0 1 0;
#X connect 3 1 4 1;
